<svg xmlns="http://www.w3.org/2000/svg" width="320" height="360" viewBox="340.0 -60.0 320.0 360.0" font-family="Poppins, 'Segoe UI', 'DejaVu Sans', Arial, sans-serif">
<path d="M 400.00 0.00 C 466.67 0.00 533.33 0.00 600.00 0.00 C 600.00 26.00 600.00 54.00 600.00 80.00 C 620.00 68.00 640.00 68.00 640.00 100.00 C 640.00 132.00 620.00 132.00 600.00 120.00 C 600.00 146.00 600.00 174.00 600.00 200.00 C 574.00 200.00 546.00 200.00 520.00 200.00 C 532.00 220.00 532.00 240.00 500.00 240.00 C 468.00 240.00 468.00 220.00 480.00 200.00 C 454.00 200.00 426.00 200.00 400.00 200.00 C 400.00 174.00 400.00 146.00 400.00 120.00 C 380.00 132.00 360.00 132.00 360.00 100.00 C 360.00 68.00 380.00 68.00 400.00 80.00 C 400.00 54.00 400.00 26.00 400.00 0.00 Z" fill="#E4E5E6" stroke="#9D9FA2" stroke-width="4"/>
<path d="M 479.7 109.8 L 523.4 88.0 L 498.4 100.4 Z" fill="#E30413"/><path d="M 479.7 109.8 L 498.4 100.4 L 495.3 116.0 Z" fill="#E30413" opacity="0.78"/><path d="M 479.7 111.4 C 461.0 116.0 454.8 128.5 465.7 136.3" fill="none" stroke="#9D9FA2" stroke-width="2.3" stroke-linecap="round" stroke-dasharray="1 5.5"/>
<text x="500.0" y="150.0" text-anchor="middle" font-size="30" font-weight="800" fill="#1A1A1A">CRE</text>
<text x="500.0" y="270.0" text-anchor="middle" font-size="18" font-weight="600" fill="#9D9FA2">Scholengemeenschap GROEI</text>
</svg>