<svg xmlns="http://www.w3.org/2000/svg" width="320" height="360" viewBox="340.0 140.0 320.0 360.0" font-family="Poppins, 'Segoe UI', 'DejaVu Sans', Arial, sans-serif">
<path d="M 400.00 200.00 C 426.00 200.00 454.00 200.00 480.00 200.00 C 468.00 220.00 468.00 240.00 500.00 240.00 C 532.00 240.00 532.00 220.00 520.00 200.00 C 546.00 200.00 574.00 200.00 600.00 200.00 C 600.00 226.00 600.00 254.00 600.00 280.00 C 580.00 268.00 560.00 268.00 560.00 300.00 C 560.00 332.00 580.00 332.00 600.00 320.00 C 600.00 346.00 600.00 374.00 600.00 400.00 C 574.00 400.00 546.00 400.00 520.00 400.00 C 532.00 380.00 532.00 360.00 500.00 360.00 C 468.00 360.00 468.00 380.00 480.00 400.00 C 454.00 400.00 426.00 400.00 400.00 400.00 C 400.00 374.00 400.00 346.00 400.00 320.00 C 420.00 332.00 440.00 332.00 440.00 300.00 C 440.00 268.00 420.00 268.00 400.00 280.00 C 400.00 254.00 400.00 226.00 400.00 200.00 Z" fill="#95C11E" stroke="#95C11E" stroke-width="4"/>
<path d="M 479.7 309.8 L 523.4 288.0 L 498.4 300.4 Z" fill="white"/><path d="M 479.7 309.8 L 498.4 300.4 L 495.3 316.0 Z" fill="white" opacity="0.78"/><path d="M 479.7 311.4 C 461.0 316.0 454.8 328.5 465.7 336.3" fill="none" stroke="white" stroke-width="2.3" stroke-linecap="round" stroke-dasharray="1 5.5"/>
<text x="500.0" y="350.0" text-anchor="middle" font-size="30" font-weight="800" fill="white">CS</text>
<text x="500.0" y="470.0" text-anchor="middle" font-size="18" font-weight="600" fill="#9D9FA2">Scholengemeenschap GROEI</text>
</svg>