<svg xmlns="http://www.w3.org/2000/svg" width="320" height="360" viewBox="140.0 340.0 320.0 360.0" font-family="Poppins, 'Segoe UI', 'DejaVu Sans', Arial, sans-serif">
<path d="M 200.00 400.00 C 226.00 400.00 254.00 400.00 280.00 400.00 C 268.00 420.00 268.00 440.00 300.00 440.00 C 332.00 440.00 332.00 420.00 320.00 400.00 C 346.00 400.00 374.00 400.00 400.00 400.00 C 400.00 426.00 400.00 454.00 400.00 480.00 C 380.00 468.00 360.00 468.00 360.00 500.00 C 360.00 532.00 380.00 532.00 400.00 520.00 C 400.00 546.00 400.00 574.00 400.00 600.00 C 333.33 600.00 266.67 600.00 200.00 600.00 C 200.00 574.00 200.00 546.00 200.00 520.00 C 220.00 532.00 240.00 532.00 240.00 500.00 C 240.00 468.00 220.00 468.00 200.00 480.00 C 200.00 454.00 200.00 426.00 200.00 400.00 Z" fill="#95C11E" stroke="#95C11E" stroke-width="4"/>
<path d="M 300.0 502.0 C 299.9 488.6 285.9 472.1 273.5 470.8 C 272.8 483.2 286.8 499.8 300.0 502.0 Z" fill="white"/><path d="M 300.0 502.0 C 309.4 490.3 309.4 465.5 300.0 455.2 C 290.6 465.5 290.6 490.3 300.0 502.0 Z" fill="white"/><path d="M 300.0 502.0 C 313.2 499.8 327.2 483.2 326.5 470.8 C 314.1 472.1 300.1 488.6 300.0 502.0 Z" fill="white"/><circle cx="300.0" cy="500.4" r="3.5" fill="#E30413"/>
<text x="300.0" y="550.0" text-anchor="middle" font-size="30" font-weight="800" fill="white">Doorslaar</text>
<text x="300.0" y="670.0" text-anchor="middle" font-size="18" font-weight="600" fill="#9D9FA2">Scholengemeenschap GROEI</text>
</svg>