<svg xmlns="http://www.w3.org/2000/svg" width="320" height="360" viewBox="-60.0 340.0 320.0 360.0" font-family="Poppins, 'Segoe UI', 'DejaVu Sans', Arial, sans-serif">
<path d="M 0.00 400.00 C 26.00 400.00 54.00 400.00 80.00 400.00 C 68.00 380.00 68.00 360.00 100.00 360.00 C 132.00 360.00 132.00 380.00 120.00 400.00 C 146.00 400.00 174.00 400.00 200.00 400.00 C 200.00 426.00 200.00 454.00 200.00 480.00 C 220.00 468.00 240.00 468.00 240.00 500.00 C 240.00 532.00 220.00 532.00 200.00 520.00 C 200.00 546.00 200.00 574.00 200.00 600.00 C 133.33 600.00 66.67 600.00 0.00 600.00 C 0.00 533.33 0.00 466.67 0.00 400.00 Z" fill="#D5E89B" stroke="#95C11E" stroke-width="4"/>
<path d="M 101.6 478.6 L 98.4 497.3" fill="none" stroke="#95C11E" stroke-width="5.1" stroke-linecap="round" stroke-linejoin="round"/><path d="M 112.5 481.7 L 100.0 484.8 L 87.5 489.5" fill="none" stroke="#95C11E" stroke-width="5.1" stroke-linecap="round" stroke-linejoin="round"/><path d="M 110.9 511.4 L 103.1 500.4 L 98.4 497.3 L 89.1 505.1 L 84.4 516.0" fill="none" stroke="#95C11E" stroke-width="5.1" stroke-linecap="round" stroke-linejoin="round"/><circle cx="103.1" cy="470.8" r="6.2" fill="#95C11E"/>
<text x="100.0" y="550.0" text-anchor="middle" font-size="30" font-weight="800" fill="#1A1A1A">DWA</text>
<text x="100.0" y="670.0" text-anchor="middle" font-size="18" font-weight="600" fill="#9D9FA2">Scholengemeenschap GROEI</text>
</svg>