<svg xmlns="http://www.w3.org/2000/svg" width="320" height="360" viewBox="-60.0 -60.0 320.0 360.0" font-family="Poppins, 'Segoe UI', 'DejaVu Sans', Arial, sans-serif">
<path d="M 0.00 0.00 C 66.67 0.00 133.33 0.00 200.00 0.00 C 200.00 26.00 200.00 54.00 200.00 80.00 C 220.00 68.00 240.00 68.00 240.00 100.00 C 240.00 132.00 220.00 132.00 200.00 120.00 C 200.00 146.00 200.00 174.00 200.00 200.00 C 174.00 200.00 146.00 200.00 120.00 200.00 C 132.00 220.00 132.00 240.00 100.00 240.00 C 68.00 240.00 68.00 220.00 80.00 200.00 C 54.00 200.00 26.00 200.00 0.00 200.00 C 0.00 133.33 0.00 66.67 0.00 0.00 Z" fill="#95C11E" stroke="#95C11E" stroke-width="4"/>
<path d="M 100.0 102.0 C 100.0 92.6 100.0 78.6 100.0 66.1" fill="none" stroke="white" stroke-width="3.1" stroke-linecap="round"/><path d="M 100.0 81.7 C 82.8 78.6 76.6 67.7 79.7 58.3 C 90.6 63.0 97.7 70.8 100.0 81.7 Z" fill="white"/><path d="M 100.0 75.5 C 117.2 70.8 124.2 59.9 121.1 49.0 C 109.4 55.2 102.3 64.6 100.0 75.5 Z" fill="white"/><circle cx="100.0" cy="63.0" r="3.9" fill="#E30413"/>
<text x="100.0" y="150.0" text-anchor="middle" font-size="30" font-weight="800" fill="white">Eksaarde</text>
<text x="100.0" y="270.0" text-anchor="middle" font-size="18" font-weight="600" fill="#9D9FA2">Scholengemeenschap GROEI</text>
</svg>