<svg xmlns="http://www.w3.org/2000/svg" width="320" height="360" viewBox="-60.0 140.0 320.0 360.0" font-family="Poppins, 'Segoe UI', 'DejaVu Sans', Arial, sans-serif">
<path d="M 0.00 200.00 C 26.00 200.00 54.00 200.00 80.00 200.00 C 68.00 220.00 68.00 240.00 100.00 240.00 C 132.00 240.00 132.00 220.00 120.00 200.00 C 146.00 200.00 174.00 200.00 200.00 200.00 C 200.00 226.00 200.00 254.00 200.00 280.00 C 180.00 268.00 160.00 268.00 160.00 300.00 C 160.00 332.00 180.00 332.00 200.00 320.00 C 200.00 346.00 200.00 374.00 200.00 400.00 C 174.00 400.00 146.00 400.00 120.00 400.00 C 132.00 380.00 132.00 360.00 100.00 360.00 C 68.00 360.00 68.00 380.00 80.00 400.00 C 54.00 400.00 26.00 400.00 0.00 400.00 C 0.00 333.33 0.00 266.67 0.00 200.00 Z" fill="#E4E5E6" stroke="#9D9FA2" stroke-width="4"/>
<path d="M 100.0 302.0 C 99.9 288.6 85.9 272.1 73.5 270.8 C 72.8 283.2 86.8 299.8 100.0 302.0 Z" fill="#95C11E"/><path d="M 100.0 302.0 C 109.4 290.3 109.4 265.5 100.0 255.2 C 90.6 265.5 90.6 290.3 100.0 302.0 Z" fill="#95C11E"/><path d="M 100.0 302.0 C 113.2 299.8 127.2 283.2 126.5 270.8 C 114.1 272.1 100.1 288.6 100.0 302.0 Z" fill="#95C11E"/><circle cx="100.0" cy="300.4" r="3.5" fill="#E30413"/>
<text x="100.0" y="350.0" text-anchor="middle" font-size="30" font-weight="800" fill="#1A1A1A">FHA</text>
<text x="100.0" y="470.0" text-anchor="middle" font-size="18" font-weight="600" fill="#9D9FA2">Scholengemeenschap GROEI</text>
</svg>