<svg xmlns="http://www.w3.org/2000/svg" width="320" height="360" viewBox="140.0 140.0 320.0 360.0" font-family="Poppins, 'Segoe UI', 'DejaVu Sans', Arial, sans-serif">
<path d="M 200.00 200.00 C 226.00 200.00 254.00 200.00 280.00 200.00 C 268.00 180.00 268.00 160.00 300.00 160.00 C 332.00 160.00 332.00 180.00 320.00 200.00 C 346.00 200.00 374.00 200.00 400.00 200.00 C 400.00 226.00 400.00 254.00 400.00 280.00 C 420.00 268.00 440.00 268.00 440.00 300.00 C 440.00 332.00 420.00 332.00 400.00 320.00 C 400.00 346.00 400.00 374.00 400.00 400.00 C 374.00 400.00 346.00 400.00 320.00 400.00 C 332.00 420.00 332.00 440.00 300.00 440.00 C 268.00 440.00 268.00 420.00 280.00 400.00 C 254.00 400.00 226.00 400.00 200.00 400.00 C 200.00 374.00 200.00 346.00 200.00 320.00 C 180.00 332.00 160.00 332.00 160.00 300.00 C 160.00 268.00 180.00 268.00 200.00 280.00 C 200.00 254.00 200.00 226.00 200.00 200.00 Z" fill="#95C11E" stroke="#95C11E" stroke-width="4"/>
<path d="M 300.0 324.0 C 300.0 307.2 300.0 282.0 300.0 259.6" fill="none" stroke="white" stroke-width="5.6" stroke-linecap="round"/><path d="M 300.0 287.6 C 269.2 282.0 258.0 262.4 263.6 245.6 C 283.2 254.0 295.8 268.0 300.0 287.6 Z" fill="white"/><path d="M 300.0 276.4 C 330.8 268.0 343.4 248.4 337.8 228.8 C 316.8 240.0 304.2 256.8 300.0 276.4 Z" fill="white"/><circle cx="300.0" cy="254.0" r="7.0" fill="#E30413"/>
<text x="300.0" y="352.0" text-anchor="middle" font-size="38" font-weight="800" fill="white">GROEI</text>
<text x="300.0" y="470.0" text-anchor="middle" font-size="18" font-weight="600" fill="#9D9FA2">Scholengemeenschap GROEI</text>
</svg>