<svg xmlns="http://www.w3.org/2000/svg" width="320" height="360" viewBox="540.0 340.0 320.0 360.0" font-family="Poppins, 'Segoe UI', 'DejaVu Sans', Arial, sans-serif">
<path d="M 600.00 400.00 C 626.00 400.00 654.00 400.00 680.00 400.00 C 668.00 420.00 668.00 440.00 700.00 440.00 C 732.00 440.00 732.00 420.00 720.00 400.00 C 746.00 400.00 774.00 400.00 800.00 400.00 C 800.00 466.67 800.00 533.33 800.00 600.00 C 733.33 600.00 666.67 600.00 600.00 600.00 C 600.00 574.00 600.00 546.00 600.00 520.00 C 620.00 532.00 640.00 532.00 640.00 500.00 C 640.00 468.00 620.00 468.00 600.00 480.00 C 600.00 454.00 600.00 426.00 600.00 400.00 Z" fill="#EEF6DA" stroke="#95C11E" stroke-width="4"/>
<path d="M 679.7 509.8 L 723.4 488.0 L 698.4 500.4 Z" fill="#95C11E"/><path d="M 679.7 509.8 L 698.4 500.4 L 695.3 516.0 Z" fill="#95C11E" opacity="0.78"/><path d="M 679.7 511.4 C 661.0 516.0 654.8 528.5 665.7 536.3" fill="none" stroke="#E30413" stroke-width="2.3" stroke-linecap="round" stroke-dasharray="1 5.5"/>
<text x="700.0" y="550.0" text-anchor="middle" font-size="30" font-weight="800" fill="#95C11E">Heiende</text>
<text x="700.0" y="670.0" text-anchor="middle" font-size="18" font-weight="600" fill="#9D9FA2">Scholengemeenschap GROEI</text>
</svg>