<svg xmlns="http://www.w3.org/2000/svg" width="320" height="360" viewBox="140.0 -60.0 320.0 360.0" font-family="Poppins, 'Segoe UI', 'DejaVu Sans', Arial, sans-serif">
<path d="M 200.00 0.00 C 266.67 0.00 333.33 0.00 400.00 0.00 C 400.00 26.00 400.00 54.00 400.00 80.00 C 380.00 68.00 360.00 68.00 360.00 100.00 C 360.00 132.00 380.00 132.00 400.00 120.00 C 400.00 146.00 400.00 174.00 400.00 200.00 C 374.00 200.00 346.00 200.00 320.00 200.00 C 332.00 180.00 332.00 160.00 300.00 160.00 C 268.00 160.00 268.00 180.00 280.00 200.00 C 254.00 200.00 226.00 200.00 200.00 200.00 C 200.00 174.00 200.00 146.00 200.00 120.00 C 220.00 132.00 240.00 132.00 240.00 100.00 C 240.00 68.00 220.00 68.00 200.00 80.00 C 200.00 54.00 200.00 26.00 200.00 0.00 Z" fill="#D5E89B" stroke="#95C11E" stroke-width="4"/>
<path d="M 300.0 102.0 C 299.9 88.6 285.9 72.1 273.5 70.8 C 272.8 83.2 286.8 99.8 300.0 102.0 Z" fill="#95C11E"/><path d="M 300.0 102.0 C 309.4 90.3 309.4 65.5 300.0 55.2 C 290.6 65.5 290.6 90.3 300.0 102.0 Z" fill="#95C11E"/><path d="M 300.0 102.0 C 313.2 99.8 327.2 83.2 326.5 70.8 C 314.1 72.1 300.1 88.6 300.0 102.0 Z" fill="#95C11E"/><circle cx="300.0" cy="100.4" r="3.5" fill="#E30413"/>
<text x="300.0" y="150.0" text-anchor="middle" font-size="30" font-weight="800" fill="#1A1A1A">HHA</text>
<text x="300.0" y="270.0" text-anchor="middle" font-size="18" font-weight="600" fill="#9D9FA2">Scholengemeenschap GROEI</text>
</svg>