<svg xmlns="http://www.w3.org/2000/svg" width="320" height="360" viewBox="540.0 -60.0 320.0 360.0" font-family="Poppins, 'Segoe UI', 'DejaVu Sans', Arial, sans-serif">
<path d="M 600.00 0.00 C 666.67 0.00 733.33 0.00 800.00 0.00 C 800.00 66.67 800.00 133.33 800.00 200.00 C 774.00 200.00 746.00 200.00 720.00 200.00 C 732.00 180.00 732.00 160.00 700.00 160.00 C 668.00 160.00 668.00 180.00 680.00 200.00 C 654.00 200.00 626.00 200.00 600.00 200.00 C 600.00 174.00 600.00 146.00 600.00 120.00 C 620.00 132.00 640.00 132.00 640.00 100.00 C 640.00 68.00 620.00 68.00 600.00 80.00 C 600.00 54.00 600.00 26.00 600.00 0.00 Z" fill="#EEF6DA" stroke="#95C11E" stroke-width="4"/>
<path d="M 701.6 78.6 L 698.4 97.3" fill="none" stroke="#95C11E" stroke-width="5.1" stroke-linecap="round" stroke-linejoin="round"/><path d="M 712.5 81.7 L 700.0 84.8 L 687.5 89.5" fill="none" stroke="#95C11E" stroke-width="5.1" stroke-linecap="round" stroke-linejoin="round"/><path d="M 710.9 111.4 L 703.1 100.4 L 698.4 97.3 L 689.1 105.1 L 684.4 116.0" fill="none" stroke="#95C11E" stroke-width="5.1" stroke-linecap="round" stroke-linejoin="round"/><circle cx="703.1" cy="70.8" r="6.2" fill="#95C11E"/>
<text x="700.0" y="150.0" text-anchor="middle" font-size="30" font-weight="800" fill="#95C11E">SLA</text>
<text x="700.0" y="270.0" text-anchor="middle" font-size="18" font-weight="600" fill="#9D9FA2">Scholengemeenschap GROEI</text>
</svg>