<svg xmlns="http://www.w3.org/2000/svg" width="320" height="360" viewBox="340.0 340.0 320.0 360.0" font-family="Poppins, 'Segoe UI', 'DejaVu Sans', Arial, sans-serif">
<path d="M 400.00 400.00 C 426.00 400.00 454.00 400.00 480.00 400.00 C 468.00 380.00 468.00 360.00 500.00 360.00 C 532.00 360.00 532.00 380.00 520.00 400.00 C 546.00 400.00 574.00 400.00 600.00 400.00 C 600.00 426.00 600.00 454.00 600.00 480.00 C 620.00 468.00 640.00 468.00 640.00 500.00 C 640.00 532.00 620.00 532.00 600.00 520.00 C 600.00 546.00 600.00 574.00 600.00 600.00 C 533.33 600.00 466.67 600.00 400.00 600.00 C 400.00 574.00 400.00 546.00 400.00 520.00 C 380.00 532.00 360.00 532.00 360.00 500.00 C 360.00 468.00 380.00 468.00 400.00 480.00 C 400.00 454.00 400.00 426.00 400.00 400.00 Z" fill="#E4E5E6" stroke="#9D9FA2" stroke-width="4"/>
<path d="M 501.6 478.6 L 498.4 497.3" fill="none" stroke="#95C11E" stroke-width="5.1" stroke-linecap="round" stroke-linejoin="round"/><path d="M 512.5 481.7 L 500.0 484.8 L 487.5 489.5" fill="none" stroke="#95C11E" stroke-width="5.1" stroke-linecap="round" stroke-linejoin="round"/><path d="M 510.9 511.4 L 503.1 500.4 L 498.4 497.3 L 489.1 505.1 L 484.4 516.0" fill="none" stroke="#95C11E" stroke-width="5.1" stroke-linecap="round" stroke-linejoin="round"/><circle cx="503.1" cy="470.8" r="6.2" fill="#95C11E"/>
<text x="500.0" y="550.0" text-anchor="middle" font-size="30" font-weight="800" fill="#1A1A1A">VEE</text>
<text x="500.0" y="670.0" text-anchor="middle" font-size="18" font-weight="600" fill="#9D9FA2">Scholengemeenschap GROEI</text>
</svg>