<svg xmlns="http://www.w3.org/2000/svg" width="320" height="360" viewBox="540.0 140.0 320.0 360.0" font-family="Poppins, 'Segoe UI', 'DejaVu Sans', Arial, sans-serif">
<path d="M 600.00 200.00 C 626.00 200.00 654.00 200.00 680.00 200.00 C 668.00 180.00 668.00 160.00 700.00 160.00 C 732.00 160.00 732.00 180.00 720.00 200.00 C 746.00 200.00 774.00 200.00 800.00 200.00 C 800.00 266.67 800.00 333.33 800.00 400.00 C 774.00 400.00 746.00 400.00 720.00 400.00 C 732.00 420.00 732.00 440.00 700.00 440.00 C 668.00 440.00 668.00 420.00 680.00 400.00 C 654.00 400.00 626.00 400.00 600.00 400.00 C 600.00 374.00 600.00 346.00 600.00 320.00 C 580.00 332.00 560.00 332.00 560.00 300.00 C 560.00 268.00 580.00 268.00 600.00 280.00 C 600.00 254.00 600.00 226.00 600.00 200.00 Z" fill="#D5E89B" stroke="#95C11E" stroke-width="4"/>
<path d="M 700.0 302.0 C 700.0 292.6 700.0 278.6 700.0 266.1" fill="none" stroke="#95C11E" stroke-width="3.1" stroke-linecap="round"/><path d="M 700.0 281.7 C 682.8 278.6 676.6 267.7 679.7 258.3 C 690.6 263.0 697.7 270.8 700.0 281.7 Z" fill="#95C11E"/><path d="M 700.0 275.5 C 717.2 270.8 724.2 259.9 721.1 249.0 C 709.4 255.2 702.3 264.6 700.0 275.5 Z" fill="#95C11E"/><circle cx="700.0" cy="263.0" r="3.9" fill="#E30413"/>
<text x="700.0" y="350.0" text-anchor="middle" font-size="30" font-weight="800" fill="#1A1A1A">ZEL</text>
<text x="700.0" y="470.0" text-anchor="middle" font-size="18" font-weight="600" fill="#9D9FA2">Scholengemeenschap GROEI</text>
</svg>