<svg xmlns="http://www.w3.org/2000/svg" width="880" height="680" viewBox="0 0 880 680" font-family="Poppins, 'Segoe UI', 'DejaVu Sans', Arial, sans-serif">
<rect width="880" height="680" fill="white"/>
<g transform="translate(40,40)">
<path d="M 0.00 0.00 C 66.67 0.00 133.33 0.00 200.00 0.00 C 200.00 26.00 200.00 54.00 200.00 80.00 C 220.00 68.00 240.00 68.00 240.00 100.00 C 240.00 132.00 220.00 132.00 200.00 120.00 C 200.00 146.00 200.00 174.00 200.00 200.00 C 174.00 200.00 146.00 200.00 120.00 200.00 C 132.00 220.00 132.00 240.00 100.00 240.00 C 68.00 240.00 68.00 220.00 80.00 200.00 C 54.00 200.00 26.00 200.00 0.00 200.00 C 0.00 133.33 0.00 66.67 0.00 0.00 Z" fill="#95C11E" stroke="white" stroke-width="3"/>
<path d="M 200.00 0.00 C 266.67 0.00 333.33 0.00 400.00 0.00 C 400.00 26.00 400.00 54.00 400.00 80.00 C 380.00 68.00 360.00 68.00 360.00 100.00 C 360.00 132.00 380.00 132.00 400.00 120.00 C 400.00 146.00 400.00 174.00 400.00 200.00 C 374.00 200.00 346.00 200.00 320.00 200.00 C 332.00 180.00 332.00 160.00 300.00 160.00 C 268.00 160.00 268.00 180.00 280.00 200.00 C 254.00 200.00 226.00 200.00 200.00 200.00 C 200.00 174.00 200.00 146.00 200.00 120.00 C 220.00 132.00 240.00 132.00 240.00 100.00 C 240.00 68.00 220.00 68.00 200.00 80.00 C 200.00 54.00 200.00 26.00 200.00 0.00 Z" fill="#D5E89B" stroke="white" stroke-width="3"/>
<path d="M 400.00 0.00 C 466.67 0.00 533.33 0.00 600.00 0.00 C 600.00 26.00 600.00 54.00 600.00 80.00 C 620.00 68.00 640.00 68.00 640.00 100.00 C 640.00 132.00 620.00 132.00 600.00 120.00 C 600.00 146.00 600.00 174.00 600.00 200.00 C 574.00 200.00 546.00 200.00 520.00 200.00 C 532.00 220.00 532.00 240.00 500.00 240.00 C 468.00 240.00 468.00 220.00 480.00 200.00 C 454.00 200.00 426.00 200.00 400.00 200.00 C 400.00 174.00 400.00 146.00 400.00 120.00 C 380.00 132.00 360.00 132.00 360.00 100.00 C 360.00 68.00 380.00 68.00 400.00 80.00 C 400.00 54.00 400.00 26.00 400.00 0.00 Z" fill="#E4E5E6" stroke="white" stroke-width="3"/>
<path d="M 600.00 0.00 C 666.67 0.00 733.33 0.00 800.00 0.00 C 800.00 66.67 800.00 133.33 800.00 200.00 C 774.00 200.00 746.00 200.00 720.00 200.00 C 732.00 180.00 732.00 160.00 700.00 160.00 C 668.00 160.00 668.00 180.00 680.00 200.00 C 654.00 200.00 626.00 200.00 600.00 200.00 C 600.00 174.00 600.00 146.00 600.00 120.00 C 620.00 132.00 640.00 132.00 640.00 100.00 C 640.00 68.00 620.00 68.00 600.00 80.00 C 600.00 54.00 600.00 26.00 600.00 0.00 Z" fill="#EEF6DA" stroke="white" stroke-width="3"/>
<path d="M 0.00 200.00 C 26.00 200.00 54.00 200.00 80.00 200.00 C 68.00 220.00 68.00 240.00 100.00 240.00 C 132.00 240.00 132.00 220.00 120.00 200.00 C 146.00 200.00 174.00 200.00 200.00 200.00 C 200.00 226.00 200.00 254.00 200.00 280.00 C 180.00 268.00 160.00 268.00 160.00 300.00 C 160.00 332.00 180.00 332.00 200.00 320.00 C 200.00 346.00 200.00 374.00 200.00 400.00 C 174.00 400.00 146.00 400.00 120.00 400.00 C 132.00 380.00 132.00 360.00 100.00 360.00 C 68.00 360.00 68.00 380.00 80.00 400.00 C 54.00 400.00 26.00 400.00 0.00 400.00 C 0.00 333.33 0.00 266.67 0.00 200.00 Z" fill="#E4E5E6" stroke="white" stroke-width="3"/>
<path d="M 200.00 200.00 C 226.00 200.00 254.00 200.00 280.00 200.00 C 268.00 180.00 268.00 160.00 300.00 160.00 C 332.00 160.00 332.00 180.00 320.00 200.00 C 346.00 200.00 374.00 200.00 400.00 200.00 C 400.00 226.00 400.00 254.00 400.00 280.00 C 420.00 268.00 440.00 268.00 440.00 300.00 C 440.00 332.00 420.00 332.00 400.00 320.00 C 400.00 346.00 400.00 374.00 400.00 400.00 C 374.00 400.00 346.00 400.00 320.00 400.00 C 332.00 420.00 332.00 440.00 300.00 440.00 C 268.00 440.00 268.00 420.00 280.00 400.00 C 254.00 400.00 226.00 400.00 200.00 400.00 C 200.00 374.00 200.00 346.00 200.00 320.00 C 180.00 332.00 160.00 332.00 160.00 300.00 C 160.00 268.00 180.00 268.00 200.00 280.00 C 200.00 254.00 200.00 226.00 200.00 200.00 Z" fill="#95C11E" stroke="white" stroke-width="3"/>
<path d="M 400.00 200.00 C 426.00 200.00 454.00 200.00 480.00 200.00 C 468.00 220.00 468.00 240.00 500.00 240.00 C 532.00 240.00 532.00 220.00 520.00 200.00 C 546.00 200.00 574.00 200.00 600.00 200.00 C 600.00 226.00 600.00 254.00 600.00 280.00 C 580.00 268.00 560.00 268.00 560.00 300.00 C 560.00 332.00 580.00 332.00 600.00 320.00 C 600.00 346.00 600.00 374.00 600.00 400.00 C 574.00 400.00 546.00 400.00 520.00 400.00 C 532.00 380.00 532.00 360.00 500.00 360.00 C 468.00 360.00 468.00 380.00 480.00 400.00 C 454.00 400.00 426.00 400.00 400.00 400.00 C 400.00 374.00 400.00 346.00 400.00 320.00 C 420.00 332.00 440.00 332.00 440.00 300.00 C 440.00 268.00 420.00 268.00 400.00 280.00 C 400.00 254.00 400.00 226.00 400.00 200.00 Z" fill="#95C11E" stroke="white" stroke-width="3"/>
<path d="M 600.00 200.00 C 626.00 200.00 654.00 200.00 680.00 200.00 C 668.00 180.00 668.00 160.00 700.00 160.00 C 732.00 160.00 732.00 180.00 720.00 200.00 C 746.00 200.00 774.00 200.00 800.00 200.00 C 800.00 266.67 800.00 333.33 800.00 400.00 C 774.00 400.00 746.00 400.00 720.00 400.00 C 732.00 420.00 732.00 440.00 700.00 440.00 C 668.00 440.00 668.00 420.00 680.00 400.00 C 654.00 400.00 626.00 400.00 600.00 400.00 C 600.00 374.00 600.00 346.00 600.00 320.00 C 580.00 332.00 560.00 332.00 560.00 300.00 C 560.00 268.00 580.00 268.00 600.00 280.00 C 600.00 254.00 600.00 226.00 600.00 200.00 Z" fill="#D5E89B" stroke="white" stroke-width="3"/>
<path d="M 0.00 400.00 C 26.00 400.00 54.00 400.00 80.00 400.00 C 68.00 380.00 68.00 360.00 100.00 360.00 C 132.00 360.00 132.00 380.00 120.00 400.00 C 146.00 400.00 174.00 400.00 200.00 400.00 C 200.00 426.00 200.00 454.00 200.00 480.00 C 220.00 468.00 240.00 468.00 240.00 500.00 C 240.00 532.00 220.00 532.00 200.00 520.00 C 200.00 546.00 200.00 574.00 200.00 600.00 C 133.33 600.00 66.67 600.00 0.00 600.00 C 0.00 533.33 0.00 466.67 0.00 400.00 Z" fill="#D5E89B" stroke="white" stroke-width="3"/>
<path d="M 200.00 400.00 C 226.00 400.00 254.00 400.00 280.00 400.00 C 268.00 420.00 268.00 440.00 300.00 440.00 C 332.00 440.00 332.00 420.00 320.00 400.00 C 346.00 400.00 374.00 400.00 400.00 400.00 C 400.00 426.00 400.00 454.00 400.00 480.00 C 380.00 468.00 360.00 468.00 360.00 500.00 C 360.00 532.00 380.00 532.00 400.00 520.00 C 400.00 546.00 400.00 574.00 400.00 600.00 C 333.33 600.00 266.67 600.00 200.00 600.00 C 200.00 574.00 200.00 546.00 200.00 520.00 C 220.00 532.00 240.00 532.00 240.00 500.00 C 240.00 468.00 220.00 468.00 200.00 480.00 C 200.00 454.00 200.00 426.00 200.00 400.00 Z" fill="#95C11E" stroke="white" stroke-width="3"/>
<path d="M 400.00 400.00 C 426.00 400.00 454.00 400.00 480.00 400.00 C 468.00 380.00 468.00 360.00 500.00 360.00 C 532.00 360.00 532.00 380.00 520.00 400.00 C 546.00 400.00 574.00 400.00 600.00 400.00 C 600.00 426.00 600.00 454.00 600.00 480.00 C 620.00 468.00 640.00 468.00 640.00 500.00 C 640.00 532.00 620.00 532.00 600.00 520.00 C 600.00 546.00 600.00 574.00 600.00 600.00 C 533.33 600.00 466.67 600.00 400.00 600.00 C 400.00 574.00 400.00 546.00 400.00 520.00 C 380.00 532.00 360.00 532.00 360.00 500.00 C 360.00 468.00 380.00 468.00 400.00 480.00 C 400.00 454.00 400.00 426.00 400.00 400.00 Z" fill="#E4E5E6" stroke="white" stroke-width="3"/>
<path d="M 600.00 400.00 C 626.00 400.00 654.00 400.00 680.00 400.00 C 668.00 420.00 668.00 440.00 700.00 440.00 C 732.00 440.00 732.00 420.00 720.00 400.00 C 746.00 400.00 774.00 400.00 800.00 400.00 C 800.00 466.67 800.00 533.33 800.00 600.00 C 733.33 600.00 666.67 600.00 600.00 600.00 C 600.00 574.00 600.00 546.00 600.00 520.00 C 620.00 532.00 640.00 532.00 640.00 500.00 C 640.00 468.00 620.00 468.00 600.00 480.00 C 600.00 454.00 600.00 426.00 600.00 400.00 Z" fill="#EEF6DA" stroke="white" stroke-width="3"/>
<path d="M 100.0 106.0 C 100.0 98.8 100.0 88.0 100.0 78.4" fill="none" stroke="white" stroke-width="2.4" stroke-linecap="round"/><path d="M 100.0 90.4 C 86.8 88.0 82.0 79.6 84.4 72.4 C 92.8 76.0 98.2 82.0 100.0 90.4 Z" fill="white"/><path d="M 100.0 85.6 C 113.2 82.0 118.6 73.6 116.2 65.2 C 107.2 70.0 101.8 77.2 100.0 85.6 Z" fill="white"/><circle cx="100.0" cy="76.0" r="3.0" fill="#E30413"/>
<text x="100.0" y="148.0" text-anchor="middle" font-size="26" font-weight="800" fill="white">Eksaarde</text>
<path d="M 300.0 106.0 C 299.9 95.7 289.1 83.0 279.6 82.0 C 279.1 91.6 289.9 104.3 300.0 106.0 Z" fill="#95C11E"/><path d="M 300.0 106.0 C 307.2 97.0 307.2 77.9 300.0 70.0 C 292.8 77.9 292.8 97.0 300.0 106.0 Z" fill="#95C11E"/><path d="M 300.0 106.0 C 310.1 104.3 320.9 91.6 320.4 82.0 C 310.9 83.0 300.1 95.7 300.0 106.0 Z" fill="#95C11E"/><circle cx="300.0" cy="104.8" r="2.7" fill="#E30413"/>
<text x="300.0" y="148.0" text-anchor="middle" font-size="26" font-weight="800" fill="#1A1A1A">HHA</text>
<path d="M 484.4 112.0 L 518.0 95.2 L 498.8 104.8 Z" fill="#E30413"/><path d="M 484.4 112.0 L 498.8 104.8 L 496.4 116.8 Z" fill="#E30413" opacity="0.78"/><path d="M 484.4 113.2 C 470.0 116.8 465.2 126.4 473.6 132.4" fill="none" stroke="#9D9FA2" stroke-width="1.8" stroke-linecap="round" stroke-dasharray="1 4.2"/>
<text x="500.0" y="148.0" text-anchor="middle" font-size="26" font-weight="800" fill="#1A1A1A">CRE</text>
<path d="M 701.2 88.0 L 698.8 102.4" fill="none" stroke="#95C11E" stroke-width="3.9" stroke-linecap="round" stroke-linejoin="round"/><path d="M 709.6 90.4 L 700.0 92.8 L 690.4 96.4" fill="none" stroke="#95C11E" stroke-width="3.9" stroke-linecap="round" stroke-linejoin="round"/><path d="M 708.4 113.2 L 702.4 104.8 L 698.8 102.4 L 691.6 108.4 L 688.0 116.8" fill="none" stroke="#95C11E" stroke-width="3.9" stroke-linecap="round" stroke-linejoin="round"/><circle cx="702.4" cy="82.0" r="4.8" fill="#95C11E"/>
<text x="700.0" y="148.0" text-anchor="middle" font-size="26" font-weight="800" fill="#95C11E">SLA</text>
<path d="M 100.0 306.0 C 99.9 295.7 89.1 283.0 79.6 282.0 C 79.1 291.6 89.9 304.3 100.0 306.0 Z" fill="#95C11E"/><path d="M 100.0 306.0 C 107.2 297.0 107.2 277.9 100.0 270.0 C 92.8 277.9 92.8 297.0 100.0 306.0 Z" fill="#95C11E"/><path d="M 100.0 306.0 C 110.1 304.3 120.9 291.6 120.4 282.0 C 110.9 283.0 100.1 295.7 100.0 306.0 Z" fill="#95C11E"/><circle cx="100.0" cy="304.8" r="2.7" fill="#E30413"/>
<text x="100.0" y="348.0" text-anchor="middle" font-size="26" font-weight="800" fill="#1A1A1A">FHA</text>
<path d="M 300.0 330.0 C 300.0 314.4 300.0 291.0 300.0 270.2" fill="none" stroke="white" stroke-width="5.2" stroke-linecap="round"/><path d="M 300.0 296.2 C 271.4 291.0 261.0 272.8 266.2 257.2 C 284.4 265.0 296.1 278.0 300.0 296.2 Z" fill="white"/><path d="M 300.0 285.8 C 328.6 278.0 340.3 259.8 335.1 241.6 C 315.6 252.0 303.9 267.6 300.0 285.8 Z" fill="white"/><circle cx="300.0" cy="265.0" r="6.5" fill="#E30413"/>
<text x="300.0" y="358.0" text-anchor="middle" font-size="34" font-weight="800" fill="white">GROEI</text>
<path d="M 484.4 312.0 L 518.0 295.2 L 498.8 304.8 Z" fill="white"/><path d="M 484.4 312.0 L 498.8 304.8 L 496.4 316.8 Z" fill="white" opacity="0.78"/><path d="M 484.4 313.2 C 470.0 316.8 465.2 326.4 473.6 332.4" fill="none" stroke="white" stroke-width="1.8" stroke-linecap="round" stroke-dasharray="1 4.2"/>
<text x="500.0" y="348.0" text-anchor="middle" font-size="26" font-weight="800" fill="white">CS</text>
<path d="M 700.0 306.0 C 700.0 298.8 700.0 288.0 700.0 278.4" fill="none" stroke="#95C11E" stroke-width="2.4" stroke-linecap="round"/><path d="M 700.0 290.4 C 686.8 288.0 682.0 279.6 684.4 272.4 C 692.8 276.0 698.2 282.0 700.0 290.4 Z" fill="#95C11E"/><path d="M 700.0 285.6 C 713.2 282.0 718.6 273.6 716.2 265.2 C 707.2 270.0 701.8 277.2 700.0 285.6 Z" fill="#95C11E"/><circle cx="700.0" cy="276.0" r="3.0" fill="#E30413"/>
<text x="700.0" y="348.0" text-anchor="middle" font-size="26" font-weight="800" fill="#1A1A1A">ZEL</text>
<path d="M 101.2 488.0 L 98.8 502.4" fill="none" stroke="#95C11E" stroke-width="3.9" stroke-linecap="round" stroke-linejoin="round"/><path d="M 109.6 490.4 L 100.0 492.8 L 90.4 496.4" fill="none" stroke="#95C11E" stroke-width="3.9" stroke-linecap="round" stroke-linejoin="round"/><path d="M 108.4 513.2 L 102.4 504.8 L 98.8 502.4 L 91.6 508.4 L 88.0 516.8" fill="none" stroke="#95C11E" stroke-width="3.9" stroke-linecap="round" stroke-linejoin="round"/><circle cx="102.4" cy="482.0" r="4.8" fill="#95C11E"/>
<text x="100.0" y="548.0" text-anchor="middle" font-size="26" font-weight="800" fill="#1A1A1A">DWA</text>
<path d="M 300.0 506.0 C 299.9 495.7 289.1 483.0 279.6 482.0 C 279.1 491.6 289.9 504.3 300.0 506.0 Z" fill="white"/><path d="M 300.0 506.0 C 307.2 497.0 307.2 477.9 300.0 470.0 C 292.8 477.9 292.8 497.0 300.0 506.0 Z" fill="white"/><path d="M 300.0 506.0 C 310.1 504.3 320.9 491.6 320.4 482.0 C 310.9 483.0 300.1 495.7 300.0 506.0 Z" fill="white"/><circle cx="300.0" cy="504.8" r="2.7" fill="#E30413"/>
<text x="300.0" y="548.0" text-anchor="middle" font-size="26" font-weight="800" fill="white">Doorslaar</text>
<path d="M 501.2 488.0 L 498.8 502.4" fill="none" stroke="#95C11E" stroke-width="3.9" stroke-linecap="round" stroke-linejoin="round"/><path d="M 509.6 490.4 L 500.0 492.8 L 490.4 496.4" fill="none" stroke="#95C11E" stroke-width="3.9" stroke-linecap="round" stroke-linejoin="round"/><path d="M 508.4 513.2 L 502.4 504.8 L 498.8 502.4 L 491.6 508.4 L 488.0 516.8" fill="none" stroke="#95C11E" stroke-width="3.9" stroke-linecap="round" stroke-linejoin="round"/><circle cx="502.4" cy="482.0" r="4.8" fill="#95C11E"/>
<text x="500.0" y="548.0" text-anchor="middle" font-size="26" font-weight="800" fill="#1A1A1A">VEE</text>
<path d="M 684.4 512.0 L 718.0 495.2 L 698.8 504.8 Z" fill="#95C11E"/><path d="M 684.4 512.0 L 698.8 504.8 L 696.4 516.8 Z" fill="#95C11E" opacity="0.78"/><path d="M 684.4 513.2 C 670.0 516.8 665.2 526.4 673.6 532.4" fill="none" stroke="#E30413" stroke-width="1.8" stroke-linecap="round" stroke-dasharray="1 4.2"/>
<text x="700.0" y="548.0" text-anchor="middle" font-size="26" font-weight="800" fill="#95C11E">Heiende</text>
</g>
<text x="440.0" y="668" text-anchor="middle" font-size="20" font-weight="600" fill="#9D9FA2">Scholengemeenschap GROEI</text>
</svg>